<?xml version="1.0" encoding="utf-8"?>
<!-- Generator: Adobe Illustrator 24.2.1, SVG Export Plug-In . SVG Version: 6.00 Build 0)  -->
<svg version="1.1" xmlns="http://www.w3.org/2000/svg" xmlns:xlink="http://www.w3.org/1999/xlink" x="0px" y="0px"
	 viewBox="0 0 465.46 155.32" style="enable-background:new 0 0 465.46 155.32;" xml:space="preserve">
<style type="text/css">
	.st0{opacity:0.5;fill:#150000;}
	.st1{opacity:0.5;fill:#2B4162;}
	.st2{opacity:0.15;fill:none;stroke:#000000;stroke-width:0.25;stroke-miterlimit:10;}
	.st3{fill:none;}
	.st4{font-family:'BebasNeue-Regular';}
	.st5{font-size:72px;}
	.st6{fill:#FDCA40;}
</style>
<g id="Layer_1">
	<path id="backdropshadow" class="st0" d="M355.93,131.92c-85.26-0.13-170.52-0.25-255.77-0.38c5.87-33.32,11.75-66.64,17.62-99.96
		c85.25-0.07,170.49-0.14,255.74-0.21C367.65,64.89,361.79,98.4,355.93,131.92z"/>
	<path class="st1" d="M355.47,125.56c-85.21,2.85-170.42,5.7-255.63,8.55c4.71-33.5,9.42-67.01,14.12-100.51
		c85.19-3.04,170.38-6.09,255.58-9.13C364.85,58.16,360.16,91.86,355.47,125.56z"/>
</g>
<g id="Layer_2">
	<rect x="426.57" y="0.12" class="st2" width="38.77" height="38.77"/>
	<rect x="387.8" y="0.12" class="st2" width="38.77" height="38.77"/>
	<rect x="426.57" y="38.89" class="st2" width="38.77" height="38.77"/>
	<rect x="387.8" y="38.89" class="st2" width="38.77" height="38.77"/>
	<rect x="349.03" y="0.12" class="st2" width="38.77" height="38.77"/>
	<rect x="310.26" y="0.12" class="st2" width="38.77" height="38.77"/>
	<rect x="349.03" y="38.89" class="st2" width="38.77" height="38.77"/>
	<rect x="310.26" y="38.89" class="st2" width="38.77" height="38.77"/>
	<rect x="349.03" y="77.66" class="st2" width="38.77" height="38.77"/>
	<rect x="310.26" y="77.66" class="st2" width="38.77" height="38.77"/>
	<rect x="349.03" y="116.43" class="st2" width="38.77" height="38.77"/>
	<rect x="310.26" y="116.43" class="st2" width="38.77" height="38.77"/>
	<rect x="426.57" y="77.66" class="st2" width="38.77" height="38.77"/>
	<rect x="387.8" y="77.66" class="st2" width="38.77" height="38.77"/>
	<rect x="426.57" y="116.43" class="st2" width="38.77" height="38.77"/>
	<rect x="387.8" y="116.43" class="st2" width="38.77" height="38.77"/>
	<rect x="271.5" y="0.12" class="st2" width="38.77" height="38.77"/>
	<rect x="232.73" y="0.12" class="st2" width="38.77" height="38.77"/>
	<rect x="271.5" y="38.89" class="st2" width="38.77" height="38.77"/>
	<rect x="232.73" y="38.89" class="st2" width="38.77" height="38.77"/>
	<rect x="193.96" y="0.12" class="st2" width="38.77" height="38.77"/>
	<rect x="155.19" y="0.12" class="st2" width="38.77" height="38.77"/>
	<rect x="193.96" y="38.89" class="st2" width="38.77" height="38.77"/>
	<rect x="155.19" y="38.89" class="st2" width="38.77" height="38.77"/>
	<rect x="193.96" y="77.66" class="st2" width="38.77" height="38.77"/>
	<rect x="155.19" y="77.66" class="st2" width="38.77" height="38.77"/>
	<rect x="193.96" y="116.43" class="st2" width="38.77" height="38.77"/>
	<rect x="155.19" y="116.43" class="st2" width="38.77" height="38.77"/>
	<rect x="271.5" y="77.66" class="st2" width="38.77" height="38.77"/>
	<rect x="232.73" y="77.66" class="st2" width="38.77" height="38.77"/>
	<rect x="271.5" y="116.43" class="st2" width="38.77" height="38.77"/>
	<rect x="232.73" y="116.43" class="st2" width="38.77" height="38.77"/>
	<rect x="116.43" y="0.12" class="st2" width="38.77" height="38.77"/>
	<rect x="77.66" y="0.12" class="st2" width="38.77" height="38.77"/>
	<rect x="116.43" y="38.89" class="st2" width="38.77" height="38.77"/>
	<rect x="77.66" y="38.89" class="st2" width="38.77" height="38.77"/>
	<rect x="38.89" y="0.12" class="st2" width="38.77" height="38.77"/>
	<rect x="0.12" y="0.12" class="st2" width="38.77" height="38.77"/>
	<rect x="38.89" y="38.89" class="st2" width="38.77" height="38.77"/>
	<rect x="0.12" y="38.89" class="st2" width="38.77" height="38.77"/>
	<rect x="38.89" y="77.66" class="st2" width="38.77" height="38.77"/>
	<rect x="0.12" y="77.66" class="st2" width="38.77" height="38.77"/>
	<rect x="38.89" y="116.43" class="st2" width="38.77" height="38.77"/>
	<rect x="0.12" y="116.43" class="st2" width="38.77" height="38.77"/>
	<rect x="116.43" y="77.66" class="st2" width="38.77" height="38.77"/>
	<rect x="77.66" y="77.66" class="st2" width="38.77" height="38.77"/>
	<rect x="116.43" y="116.43" class="st2" width="38.77" height="38.77"/>
	<rect x="77.66" y="116.43" class="st2" width="38.77" height="38.77"/>
</g>
<g id="logo">
	<rect x="123.13" y="58.17" class="st3" width="337.21" height="76.1"/>
	<text transform="matrix(1 0 0 1 123.1346 108.5676)" class="st4 st5">superbro</text>
	<rect x="118.94" y="55.31" class="st3" width="337.21" height="76.1"/>
	<text transform="matrix(1 0 0 1 118.9512 105.7051)" class="st6 st4 st5">superbro</text>
	<path d="M132.23,93.86c0.08-0.49-1.63-0.62-3.45-2.48c-0.33-0.34-0.56-0.63-0.78-0.56c-0.5,0.14-0.8,2.02,0.04,3.04
		C129.2,95.26,132.12,94.48,132.23,93.86z"/>
	<path d="M136.48,69.22c-0.08,0.48,1.64,0.61,3.49,2.42c0.34,0.33,0.57,0.61,0.79,0.55c0.5-0.14,0.81-1.98-0.04-2.97
		C139.53,67.85,136.58,68.62,136.48,69.22z"/>
	<path d="M160.57,58.28c0.08-0.48-1.65-0.62-3.5-2.46c-0.34-0.34-0.57-0.62-0.79-0.56c-0.51,0.14-0.81,2.01,0.04,3.02
		C157.51,59.67,160.46,58.9,160.57,58.28z"/>
	<path d="M176.21,58.28c0.08-0.49-1.62-0.62-3.43-2.47c-0.33-0.34-0.56-0.62-0.78-0.56c-0.5,0.14-0.8,2.02,0.04,3.03
		C173.2,59.68,176.11,58.9,176.21,58.28z"/>
	<path d="M177.63,105.6c-0.08,0.48,1.62,0.61,3.43,2.42c0.33,0.33,0.56,0.61,0.78,0.55c0.5-0.14,0.8-1.98-0.04-2.97
		C180.64,104.23,177.73,105,177.63,105.6z"/>
	<path d="M205.4,105.6c-0.08,0.48,1.62,0.61,3.43,2.42c0.33,0.33,0.56,0.61,0.78,0.55c0.5-0.14,0.8-1.98-0.04-2.97
		C208.41,104.23,205.5,105,205.4,105.6z"/>
	<path d="M231.54,105.6c-0.08,0.48,1.62,0.61,3.43,2.42c0.33,0.33,0.56,0.61,0.78,0.55c0.5-0.14,0.8-1.98-0.04-2.97
		C234.55,104.23,231.65,105,231.54,105.6z"/>
	<path d="M247.89,105.6c-0.08,0.48,1.62,0.61,3.43,2.42c0.33,0.33,0.56,0.61,0.78,0.55c0.5-0.14,0.8-1.98-0.04-2.97
		C250.9,104.23,248,105,247.89,105.6z"/>
	<path d="M260.55,105.6c-0.08,0.48,1.62,0.61,3.43,2.42c0.33,0.33,0.56,0.61,0.78,0.55c0.5-0.14,0.8-1.98-0.04-2.97
		C263.56,104.23,260.66,105,260.55,105.6z"/>
	<path d="M289.61,105.6c-0.08,0.48,1.62,0.61,3.43,2.42c0.33,0.33,0.56,0.61,0.78,0.55c0.5-0.14,0.8-1.98-0.04-2.97
		C292.62,104.23,289.72,105,289.61,105.6z"/>
	<path d="M305.94,105.6c-0.08,0.48,1.62,0.61,3.43,2.42c0.33,0.33,0.56,0.61,0.78,0.55c0.5-0.14,0.8-1.98-0.04-2.97
		C308.95,104.23,306.05,105,305.94,105.6z"/>
	<path d="M231.2,101.46c0.08-0.48-1.62-0.61-3.43-2.42c-0.33-0.33-0.56-0.61-0.78-0.55c-0.5,0.14-0.8,1.98,0.04,2.97
		C228.19,102.83,231.1,102.06,231.2,101.46z"/>
	<path d="M228.41,78.78c0.08-0.48-1.62-0.62-3.43-2.45c-0.33-0.34-0.56-0.62-0.78-0.56c-0.5,0.14-0.8,2,0.04,3
		C225.4,80.16,228.31,79.39,228.41,78.78z"/>
	<path d="M231.24,58.24c0.08-0.48-1.63-0.61-3.46-2.42c-0.33-0.33-0.56-0.61-0.78-0.55c-0.5,0.14-0.8,1.98,0.04,2.97
		C228.21,59.61,231.13,58.85,231.24,58.24z"/>
</g>
</svg>
